<?xml version="1.0" standalone="no"?>
<!DOCTYPE svg PUBLIC "-//W3C//DTD SVG 20010904//EN"
 "http://www.w3.org/TR/2001/REC-SVG-20010904/DTD/svg10.dtd">
<svg version="1.0" xmlns="http://www.w3.org/2000/svg"
 width="960.000000pt" height="960.000000pt" viewBox="0 0 960.000000 960.000000"
 preserveAspectRatio="xMidYMid meet">
<metadata>
Created by potrace 1.11, written by Peter Selinger 2001-2013
</metadata>
<g transform="translate(0.000000,960.000000) scale(0.100000,-0.100000)"
fill="#000000" stroke="none">
<path d="M4700 9343 c-175 -86 -524 -255 -635 -308 -60 -29 -182 -87 -270
-130 -88 -42 -209 -101 -270 -130 -60 -29 -222 -107 -359 -174 -137 -66 -250
-121 -251 -121 -2 0 -119 -57 -261 -126 -143 -70 -295 -143 -339 -164 -44 -21
-161 -77 -260 -125 -99 -48 -234 -113 -300 -145 -66 -32 -205 -99 -310 -150
-104 -51 -230 -111 -280 -135 l-90 -43 -32 -144 c-37 -166 -103 -454 -237
-1043 -122 -533 -156 -684 -211 -925 -24 -107 -80 -352 -124 -545 -44 -192
-107 -471 -141 -620 -34 -148 -86 -378 -116 -510 -30 -131 -52 -245 -49 -253
2 -7 52 -73 110 -145 57 -73 222 -280 366 -462 144 -181 330 -415 413 -520 83
-104 163 -206 177 -225 21 -27 639 -808 806 -1016 15 -20 177 -223 358 -452
l330 -417 2075 0 2074 0 639 805 c351 443 699 883 775 978 75 95 220 278 322
406 102 128 233 294 291 367 58 74 203 257 322 407 119 151 217 277 217 281 0
4 -16 77 -35 162 -20 85 -42 183 -50 219 -8 36 -35 155 -60 265 -26 110 -48
210 -51 222 -2 11 -74 329 -160 705 -85 375 -161 710 -168 743 -16 71 -278
1224 -343 1505 -25 107 -45 200 -46 206 0 7 -46 34 -101 60 -56 26 -193 92
-306 147 -113 54 -236 114 -275 132 -38 18 -160 77 -270 130 -110 54 -245 119
-300 145 -100 47 -238 114 -495 237 -291 141 -409 197 -505 243 -55 26 -172
82 -260 125 -258 125 -402 194 -540 260 -71 34 -186 90 -255 123 -210 101
-423 202 -424 201 0 0 -44 -21 -96 -46z m1043 -2202 c368 -182 670 -331 672
-331 2 0 43 -18 92 -41 48 -23 106 -49 128 -59 22 -9 63 -28 90 -40 28 -12 73
-33 100 -45 160 -72 305 -138 305 -140 0 -1 20 -89 44 -196 24 -107 69 -304
100 -439 30 -135 96 -425 146 -645 50 -220 100 -440 111 -490 10 -49 23 -106
29 -125 17 -61 140 -616 140 -632 0 -8 -64 -96 -142 -195 -79 -99 -154 -194
-168 -212 -14 -18 -37 -46 -51 -64 -32 -39 -196 -245 -362 -457 -66 -85 -124
-157 -127 -160 -3 -3 -30 -36 -60 -75 -30 -38 -62 -79 -72 -90 -9 -11 -96
-121 -194 -245 -98 -124 -189 -239 -203 -256 -14 -17 -36 -44 -49 -60 -12 -16
-59 -75 -103 -132 l-81 -102 -1288 0 -1288 0 -35 43 c-20 24 -51 64 -70 88
-18 24 -164 208 -323 409 -159 201 -389 491 -511 645 -122 154 -323 408 -447
564 -124 157 -226 291 -226 299 0 12 49 231 261 1162 22 96 56 245 75 330 19
85 41 182 49 215 8 33 51 220 95 415 44 195 82 365 85 378 6 23 51 47 470 247
61 29 196 94 300 145 105 51 244 118 310 150 66 32 183 88 260 125 412 199
547 265 720 348 105 50 209 101 233 112 l43 21 137 -67 c75 -37 438 -216 805
-398z"/>
</g>
</svg>
